<svg width="197" height="55" xmlns="http://www.w3.org/2000/svg" xmlns:xlink="http://www.w3.org/1999/xlink" xml:space="preserve" overflow="hidden"><g transform="translate(-44 -306)"><g><g><g><g><path d="M83.3996 0.00503013 89.5615 0.00503013 89.5615 28.5208 83.3996 28.5208Z" fill="#415FD2" fill-rule="nonzero" fill-opacity="1" transform="matrix(1 0 0 1.00422 44 307.026)"/><path d="M55.2862 0.00503013 55.2862 28.5208 79.1441 28.5208 79.1441 24.0893 61.3324 24.0893 61.3324 16.1014 77.9217 16.1014 77.9217 11.6699 61.3324 11.6699 61.3324 4.43154 78.807 4.43154 78.807 0.00503013 55.2862 0.00503013Z" fill="#415FD2" fill-rule="nonzero" fill-opacity="1" transform="matrix(1 0 0 1.00422 44 307.026)"/><path d="M125.381 0.00503013 125.381 28.5208 149.239 28.5208 149.239 24.0893 131.427 24.0893 131.427 16.1014 148.017 16.1014 148.017 11.6699 131.427 11.6699 131.427 4.43154 148.902 4.43154 148.902 0.00503013 125.381 0.00503013Z" fill="#415FD2" fill-rule="nonzero" fill-opacity="1" transform="matrix(1 0 0 1.00422 44 307.026)"/><path d="M94.6268 28.5208 109.114 28.5208C120.336 28.5208 122.152 19.7433 122.152 14.4264 122.152 7.4798 119.536 1.78706e-15 107.715 1.78706e-15L94.6318 1.78706e-15 94.6318 28.5208 94.6268 28.5208ZM107.725 24.0943 100.799 24.0943 100.799 4.43154 106.79 4.43154C113.334 4.43154 115.733 8.1136 115.733 14.4767 115.733 20.6437 112.947 24.0943 107.725 24.0943" fill="#415FD2" fill-rule="nonzero" fill-opacity="1" transform="matrix(1 0 0 1.00422 44 307.026)"/><path d="M153.55 0.00503013 153.55 28.5208 158.927 28.5208 158.927 5.08546 172.111 28.5208 181.205 28.5208 181.205 0.00503013 175.828 0.00503013 175.828 23.4404 162.649 0.00503013 153.55 0.00503013Z" fill="#415FD2" fill-rule="nonzero" fill-opacity="1" transform="matrix(1 0 0 1.00422 44 307.026)"/><path d="M39.9895 0.00503013 33.1033 20.7493 26.1013 0.00503013 15.8047 0.00503013 15.8047 28.5208 21.8559 28.5208 21.8559 4.43154 29.9997 28.5208 36.2018 28.5208 44.2299 4.43154 44.2299 28.5208 50.2812 28.5208 50.2812 0.00503013 39.9895 0.00503013Z" fill="#415FD2" fill-rule="nonzero" fill-opacity="1" transform="matrix(1 0 0 1.00422 44 307.026)"/><path d="M190.753 41.1012 188.665 41.1012 187.166 44.0136 185.743 41.1012 183.444 41.1012 185.858 45.1555 183.217 49.9089 185.38 49.9089 187.045 46.5639 188.7 49.9089 190.949 49.9089 188.318 45.1555 190.753 41.1012Z" fill="#3C3C3C" fill-rule="nonzero" fill-opacity="1" transform="matrix(1 0 0 1.00422 44 307.026)"/><path d="M150.567 40.9855C149.269 40.9855 148.676 41.6998 148.318 42.2631L148.278 42.2631 148.278 37.0871 146.241 37.0871 146.241 49.9089 148.278 49.9089 148.278 44.7832C148.278 43.6464 148.676 42.6605 149.827 42.6605 150.738 42.6605 151.085 43.2692 151.085 44.6273L151.085 49.9089 153.122 49.9089 153.122 44.2299C153.127 42.4493 152.534 40.9855 150.567 40.9855Z" fill="#3C3C3C" fill-rule="nonzero" fill-opacity="1" transform="matrix(1 0 0 1.00422 44 307.026)"/><path d="M113.56 37.3739 115.668 37.3739 115.668 39.3859 113.56 39.3859Z" fill="#3C3C3C" fill-rule="nonzero" fill-opacity="1" transform="matrix(1 0 0 1.00422 44 307.026)"/><path d="M113.595 41.1012 115.633 41.1012 115.633 49.9089 113.595 49.9089Z" fill="#3C3C3C" fill-rule="nonzero" fill-opacity="1" transform="matrix(1 0 0 1.00422 44 307.026)"/><path d="M103.842 48.5005C102.182 48.5005 101.387 47.1977 101.387 45.5327 101.387 43.6313 102.097 42.5147 103.741 42.5147 104.305 42.5147 104.823 42.736 105.195 42.9221L105.306 41.3326C104.908 41.1817 104.149 40.9805 103.5 40.9805 100.567 40.9805 99.2797 43.0026 99.2797 45.5126 99.2797 48.0076 100.502 50.0246 103.384 50.0246 104.214 50.0246 104.939 49.8586 105.426 49.6725L105.311 48.088C104.989 48.2892 104.335 48.5005 103.842 48.5005Z" fill="#3C3C3C" fill-rule="nonzero" fill-opacity="1" transform="matrix(1 0 0 1.00422 44 307.026)"/><path d="M122.499 40.9805C121.085 40.9805 120.416 41.9312 120.119 42.4794L120.079 42.4794C120.079 42.0016 120.039 41.4432 120.014 41.0962L118.118 41.0911C118.158 41.5287 118.178 42.0066 118.178 42.5348L118.178 49.8989 120.22 49.8989 120.22 44.7682C120.22 43.6313 120.617 42.6404 121.769 42.6404 122.68 42.6404 123.027 43.2491 123.027 44.6072L123.027 49.8939 125.064 49.8939 125.064 44.2148C125.059 42.4442 124.466 40.9805 122.499 40.9805Z" fill="#3C3C3C" fill-rule="nonzero" fill-opacity="1" transform="matrix(1 0 0 1.00422 44 307.026)"/><path d="M170.959 40.9805C169.546 40.9805 168.877 41.9312 168.58 42.4794L168.54 42.4794C168.54 42.0016 168.499 41.4432 168.474 41.0962L166.578 41.0911C166.618 41.5287 166.638 42.0066 166.638 42.5348L166.638 49.8989 168.675 49.8989 168.675 44.7682C168.675 43.6313 169.073 42.6404 170.225 42.6404 171.135 42.6404 171.482 43.2491 171.482 44.6072L171.482 49.8939 173.524 49.8939 173.524 44.2148C173.519 42.4442 172.921 40.9805 170.959 40.9805Z" fill="#3C3C3C" fill-rule="nonzero" fill-opacity="1" transform="matrix(1 0 0 1.00422 44 307.026)"/><path d="M77.2779 40.9805C75.8644 40.9805 75.1954 41.9312 74.8986 42.4794L74.8584 42.4794C74.8584 42.0016 74.8182 41.4432 74.793 41.0962L72.8966 41.0911C72.9369 41.5287 72.957 42.0066 72.957 42.5348L72.957 49.8989 74.9942 49.8989 74.9942 44.7682C74.9942 43.6313 75.3916 42.6404 76.5435 42.6404 77.4539 42.6404 77.801 43.2491 77.801 44.6072L77.801 49.8939 79.8432 49.8939 79.8432 44.2148C79.8382 42.4442 79.2396 40.9805 77.2779 40.9805Z" fill="#3C3C3C" fill-rule="nonzero" fill-opacity="1" transform="matrix(1 0 0 1.00422 44 307.026)"/><path d="M18.0582 41.1012 16.0159 41.1012 16.0159 46.2319C16.0159 47.3687 15.6186 48.3597 14.4667 48.3597 13.5562 48.3597 13.2091 47.751 13.2091 46.3929L13.2091 41.1062 11.1719 41.1062 11.1719 46.7852C11.1719 48.5659 11.7655 50.0297 13.7323 50.0297 15.1457 50.0297 15.8147 49.079 16.1115 48.5307L16.1517 48.5307C16.1517 49.0086 16.192 49.5669 16.2171 49.914L18.1135 49.919C18.0733 49.4814 18.0531 49.0035 18.0531 48.4754L18.0531 41.1012 18.0582 41.1012Z" fill="#3C3C3C" fill-rule="nonzero" fill-opacity="1" transform="matrix(1 0 0 1.00422 44 307.026)"/><path d="M86.473 40.9805C85.0595 40.9805 84.3905 41.9312 84.0937 42.4794L84.0535 42.4794C84.0535 42.0016 84.0132 41.4432 83.9881 41.0962L82.0917 41.0911C82.132 41.5287 82.1521 42.0066 82.1521 42.5348L82.1521 49.8989 84.1893 49.8989 84.1893 44.7682C84.1893 43.6313 84.5867 42.6404 85.7386 42.6404 86.649 42.6404 86.9961 43.2491 86.9961 44.6072L86.9961 49.8939 89.0383 49.8939 89.0383 44.2148C89.0333 42.4442 88.4397 40.9805 86.473 40.9805Z" fill="#3C3C3C" fill-rule="nonzero" fill-opacity="1" transform="matrix(1 0 0 1.00422 44 307.026)"/><path d="M60.6332 48.5005C58.9732 48.5005 58.1735 47.1977 58.1735 45.5327 58.1735 43.6313 58.8827 42.5147 60.5275 42.5147 61.0909 42.5147 61.609 42.736 61.9813 42.9221L62.0919 41.3326C61.6945 41.1817 60.935 40.9805 60.2861 40.9805 57.3586 40.9805 56.0658 43.0026 56.0658 45.5126 56.0658 48.0076 57.2881 50.0246 60.1704 50.0246 61.0004 50.0246 61.7197 49.8586 62.2126 49.6725L62.0969 48.088C61.775 48.2892 61.1161 48.5005 60.6332 48.5005Z" fill="#3C3C3C" fill-rule="nonzero" fill-opacity="1" transform="matrix(1 0 0 1.00422 44 307.026)"/><path d="M47.8969 47.8164 47.8516 47.8164 46.0257 41.1012 43.9231 41.1012 46.8456 50.0246 46.6897 50.7993C46.418 51.7097 46.1313 52.1323 45.4673 52.1172 45.1605 52.1121 44.9291 52.0417 44.7028 51.9612L44.5871 53.5105C44.8939 53.6111 45.3567 53.7218 45.8999 53.7218 47.2933 53.7218 48.0025 52.8315 48.3748 51.6192L51.589 41.1062 49.6222 41.1062 47.8969 47.8164Z" fill="#3C3C3C" fill-rule="nonzero" fill-opacity="1" transform="matrix(1 0 0 1.00422 44 307.026)"/><path d="M34.064 37.3487 36.1717 37.3487 36.1717 39.3859 34.064 39.3859Z" fill="#3C3C3C" fill-rule="nonzero" fill-opacity="1" transform="matrix(1 0 0 1.00422 44 307.026)"/><path d="M41.2571 38.6616 39.2199 39.2903 39.2199 41.0962 37.8165 41.0962 37.8165 42.6052 39.2199 42.6052 39.2199 47.4945C39.2199 49.3305 40.0901 50.0347 41.6394 50.0347 42.2531 50.0347 42.7008 49.9039 43.0227 49.758L43.0227 48.3245C42.9171 48.3697 42.5348 48.4804 42.1978 48.4804 41.5489 48.4804 41.2622 48.2037 41.2622 47.2329L41.2622 42.6002 43.0227 42.6002 43.0227 41.0911 41.2622 41.0911 41.2622 38.6616 41.2571 38.6616Z" fill="#3C3C3C" fill-rule="nonzero" fill-opacity="1" transform="matrix(1 0 0 1.00422 44 307.026)"/><path d="M109.853 38.6616 107.816 39.2903 107.816 41.0962 106.412 41.0962 106.412 42.6052 107.816 42.6052 107.816 47.4945C107.816 49.3305 108.686 50.0347 110.235 50.0347 110.849 50.0347 111.297 49.9039 111.619 49.758L111.619 48.3245C111.513 48.3697 111.131 48.4804 110.794 48.4804 110.145 48.4804 109.858 48.2037 109.858 47.2329L109.858 42.6002 111.619 42.6002 111.619 41.0911 109.858 41.0911 109.858 38.6616 109.853 38.6616Z" fill="#3C3C3C" fill-rule="nonzero" fill-opacity="1" transform="matrix(1 0 0 1.00422 44 307.026)"/><path d="M142.71 38.6616 140.673 39.2903 140.673 41.0962 139.269 41.0962 139.269 42.6052 140.673 42.6052 140.673 47.4945C140.673 49.3305 141.543 50.0347 143.092 50.0347 143.706 50.0347 144.153 49.9039 144.475 49.758L144.475 48.3245C144.37 48.3697 143.987 48.4804 143.65 48.4804 143.002 48.4804 142.715 48.2037 142.715 47.2329L142.715 42.6002 144.475 42.6002 144.475 41.0911 142.715 41.0911 142.715 38.6616 142.71 38.6616Z" fill="#3C3C3C" fill-rule="nonzero" fill-opacity="1" transform="matrix(1 0 0 1.00422 44 307.026)"/><path d="M196.995 42.6052 196.995 41.0962 195.234 41.0962 195.234 38.6616 193.197 39.2903 193.197 41.0962 191.794 41.0962 191.794 42.6052 193.197 42.6052 193.197 47.4945C193.197 49.3305 194.067 50.0347 195.617 50.0347 196.23 50.0347 196.678 49.9039 197 49.758L197 48.3245C196.894 48.3697 196.512 48.4804 196.175 48.4804 195.526 48.4804 195.239 48.2037 195.239 47.2329L195.239 42.6002 196.995 42.6002 196.995 42.6052Z" fill="#3C3C3C" fill-rule="nonzero" fill-opacity="1" transform="matrix(1 0 0 1.00422 44 307.026)"/><path d="M34.0992 41.1012 36.1415 41.1012 36.1415 49.9089 34.0992 49.9089Z" fill="#3C3C3C" fill-rule="nonzero" fill-opacity="1" transform="matrix(1 0 0 1.00422 44 307.026)"/><path d="M29.3106 37.0771 31.3478 37.0771 31.3478 49.9089 29.3106 49.9089Z" fill="#3C3C3C" fill-rule="nonzero" fill-opacity="1" transform="matrix(1 0 0 1.00422 44 307.026)"/><path d="M178.831 40.9855C176.623 40.9855 175.245 43.0026 175.245 45.6384 175.245 48.0126 176.462 50.0297 179.274 50.0297 180.506 50.0297 181.417 49.6675 181.869 49.4764L181.769 47.8969C181.366 48.1886 180.743 48.5458 179.495 48.5458 177.82 48.5458 177.211 47.6102 177.211 46.0408L182.307 46.0408 182.307 45.6685C182.317 42.0821 180.707 40.9855 178.831 40.9855ZM177.216 44.7883C177.216 43.581 177.674 42.3487 178.831 42.3487 179.827 42.3487 180.35 43.1786 180.35 44.7883L177.216 44.7883Z" fill="#3C3C3C" fill-rule="nonzero" fill-opacity="1" transform="matrix(1 0 0 1.00422 44 307.026)"/><path d="M158.303 40.9855C156.095 40.9855 154.717 43.0026 154.717 45.6384 154.717 48.0126 155.934 50.0297 158.746 50.0297 159.978 50.0297 160.884 49.6675 161.341 49.4764L161.246 47.8969C160.843 48.1886 160.22 48.5458 158.977 48.5458 157.302 48.5458 156.694 47.6102 156.694 46.0408L161.789 46.0408 161.789 45.6685C161.779 42.0821 160.174 40.9855 158.303 40.9855ZM156.684 44.7883C156.684 43.581 157.141 42.3487 158.303 42.3487 159.299 42.3487 159.817 43.1786 159.817 44.7883L156.684 44.7883Z" fill="#3C3C3C" fill-rule="nonzero" fill-opacity="1" transform="matrix(1 0 0 1.00422 44 307.026)"/><path d="M132.358 42.4945 132.323 42.4945C131.89 41.7098 131.181 40.9855 129.918 40.9855 127.645 40.9855 126.774 43.0981 126.774 45.5327 126.774 49.084 128.605 49.8939 129.813 49.8939 131.176 49.8939 131.84 49.1192 132.182 48.3949L132.217 48.3949 132.217 49.2802C132.217 50.6786 131.885 52.1071 129.843 52.1071 128.761 52.1071 127.795 51.6544 127.277 51.3727L127.167 53.1685C127.69 53.3596 128.781 53.7067 130.15 53.7067 133.354 53.7067 134.179 51.76 134.179 49.0035L134.179 42.4694C134.179 42.0217 134.214 41.5438 134.249 41.0911L132.413 41.0911C132.408 41.5489 132.358 42.0116 132.358 42.4945ZM130.311 48.415C129.551 48.415 128.882 47.4945 128.882 45.417 128.882 43.6163 129.305 42.5448 130.461 42.5247 131.513 42.5046 132.217 43.5408 132.217 45.402 132.222 47.414 131.689 48.415 130.311 48.415Z" fill="#3C3C3C" fill-rule="nonzero" fill-opacity="1" transform="matrix(1 0 0 1.00422 44 307.026)"/><path d="M94.3552 40.9855C92.152 40.9855 90.7687 43.0026 90.7687 45.6384 90.7687 48.0126 91.991 50.0297 94.7978 50.0297 96.0302 50.0297 96.9356 49.6675 97.3934 49.4764L97.2978 47.8969C96.8904 48.1886 96.2666 48.5458 95.0191 48.5458 93.3491 48.5458 92.7405 47.6102 92.7405 46.0408L97.841 46.0408 97.841 45.6685C97.841 42.0821 96.2264 40.9855 94.3552 40.9855ZM92.7405 44.7883C92.7405 43.581 93.2033 42.3487 94.3552 42.3487 95.3562 42.3487 95.8743 43.1786 95.8743 44.7883L92.7405 44.7883Z" fill="#3C3C3C" fill-rule="nonzero" fill-opacity="1" transform="matrix(1 0 0 1.00422 44 307.026)"/><path d="M67.283 40.9855C65.5074 40.9855 63.44 41.9161 63.44 45.4975 63.44 49.1846 65.5074 50.0347 67.283 50.0347 69.0586 50.0347 71.1109 49.1896 71.1109 45.4975 71.1059 41.9161 69.0586 40.9855 67.283 40.9855ZM67.283 48.6061C65.8695 48.6061 65.5476 46.9713 65.5476 45.5026 65.5476 44.0338 65.8695 42.4191 67.283 42.4191 68.6965 42.4191 69.0033 44.0338 69.0033 45.5026 69.0033 46.9663 68.7015 48.6061 67.283 48.6061Z" fill="#3C3C3C" fill-rule="nonzero" fill-opacity="1" transform="matrix(1 0 0 1.00422 44 307.026)"/><path d="M26.8056 44.5066C26.8056 42.2984 26.1818 40.9855 23.4706 40.9855 22.1477 40.9855 21.3227 41.3527 20.7292 41.6243L20.8398 43.234C21.2825 42.8869 22.1929 42.4141 23.214 42.4141 24.4565 42.4141 24.8991 43.2491 24.8991 44.1394L24.8991 44.5066 24.4263 44.5066C21.7402 44.5066 19.8288 45.1102 19.8288 47.4744 19.8288 49.0991 21.0712 50.0246 22.4243 50.0246 23.6869 50.0246 24.3961 49.4713 24.9293 48.6866L24.9696 48.6866C24.9696 49.1444 25.0048 49.5971 25.0752 49.8989L26.9112 49.8989C26.8659 49.5468 26.8005 48.9784 26.8005 48.3647L26.8005 44.5066 26.8056 44.5066ZM24.9042 46.1011C24.9042 47.6856 24.4364 48.6715 23.1336 48.6715 22.2885 48.6715 21.7352 48.1031 21.7352 47.2732 21.7352 45.9402 22.8619 45.5629 24.6728 45.5629L24.9042 45.5629 24.9042 46.1011Z" fill="#3C3C3C" fill-rule="nonzero" fill-opacity="1" transform="matrix(1 0 0 1.00422 44 307.026)"/><path d="M9.43652 43.9382C9.43652 39.6374 7.17297 37.8065 4.71826 37.8065 2.26356 37.8065 0 39.6374 0 43.9382 0 48.2389 2.26356 50.0699 4.71826 50.0699L5.11061 50.0699 6.79067 52.1876 9.19508 52.1876 6.85607 49.5367C8.36008 48.6917 9.43652 46.9009 9.43652 43.9382ZM4.71826 48.4653C3.29473 48.4653 2.17805 47.2379 2.17805 43.9382 2.17805 40.6384 3.29473 39.4111 4.71826 39.4111 6.14179 39.4111 7.25848 40.6334 7.25848 43.9382 7.25345 47.243 6.14179 48.4653 4.71826 48.4653Z" fill="#3C3C3C" fill-rule="nonzero" fill-opacity="1" transform="matrix(1 0 0 1.00422 44 307.026)"/></g></g></g></g></g></svg>