<?xml version="1.0" encoding="UTF-8"?>
<svg width="64px" height="64px" viewBox="0 0 64 64" version="1.1" xmlns="http://www.w3.org/2000/svg" xmlns:xlink="http://www.w3.org/1999/xlink">
    <title>Icon-Service/64/Amazon-Bedrock_64_White</title>
    <g id="Icon-Service/64/Amazon-Bedrock_64" stroke="none" stroke-width="1">
        <path d="M56,30.9998918 C54.897,30.9998918 54,30.1028918 54,28.9998918 C54,27.8968918 54.897,26.9998918 56,26.9998918 C57.103,26.9998918 58,27.8968918 58,28.9998918 C58,30.1028918 57.103,30.9998918 56,30.9998918 L56,30.9998918 Z M24.113,57.9078918 L20.865,56.0138918 L27.53,51.8478918 L26.47,50.1518918 L18.913,54.8748918 L13,51.4258918 L13,42.5348918 L18.555,38.8318918 L17.445,37.1678918 L11.959,40.8248918 L6,37.4198918 L6,32.5798918 L12.496,28.8678918 L11.504,27.1318918 L6,30.2768918 L6,26.5798918 L12,23.1518918 L18,26.5798918 L18,30.4338918 L13.485,33.1428918 L14.515,34.8568918 L19,32.1658918 L23.485,34.8568918 L24.515,33.1428918 L20,30.4338918 L20,26.5348918 L25.555,22.8318918 C25.833,22.6458918 26,22.3338918 26,21.9998918 L26,14.9998918 L24,14.9998918 L24,21.4648918 L18.959,24.8248918 L13,21.4198918 L13,12.5738918 L18,9.65789181 L18,17.9998918 L20,17.9998918 L20,8.49089181 L24.113,6.09189181 L32,8.72089181 L32,37.4338918 L17.485,46.1428918 L18.515,47.8568918 L32,39.7658918 L32,55.2788918 L24.113,57.9078918 Z M54,41.9998918 C54,43.1028918 53.103,43.9998918 52,43.9998918 C50.897,43.9998918 50,43.1028918 50,41.9998918 C50,40.8968918 50.897,39.9998918 52,39.9998918 C53.103,39.9998918 54,40.8968918 54,41.9998918 L54,41.9998918 Z M44,51.9998918 C44,53.1028918 43.103,53.9998918 42,53.9998918 C40.897,53.9998918 40,53.1028918 40,51.9998918 C40,50.8968918 40.897,49.9998918 42,49.9998918 C43.103,49.9998918 44,50.8968918 44,51.9998918 L44,51.9998918 Z M43,11.9998918 C43,10.8968918 43.897,9.99989181 45,9.99989181 C46.103,9.99989181 47,10.8968918 47,11.9998918 C47,13.1028918 46.103,13.9998918 45,13.9998918 C43.897,13.9998918 43,13.1028918 43,11.9998918 L43,11.9998918 Z M56,24.9998918 C54.141,24.9998918 52.589,26.2798918 52.142,27.9998918 L34,27.9998918 L34,22.9998918 L45,22.9998918 C45.553,22.9998918 46,22.5518918 46,21.9998918 L46,15.8578918 C47.72,15.4108918 49,13.8578918 49,11.9998918 C49,9.79389181 47.206,7.99989181 45,7.99989181 C42.794,7.99989181 41,9.79389181 41,11.9998918 C41,13.8578918 42.28,15.4108918 44,15.8578918 L44,20.9998918 L34,20.9998918 L34,7.99989181 C34,7.56889181 33.725,7.18789181 33.316,7.05089181 L24.316,4.05089181 C24.042,3.96089181 23.744,3.99089181 23.496,4.13589181 L11.496,11.1358918 C11.188,11.3148918 11,11.6448918 11,11.9998918 L11,21.4198918 L4.504,25.1318918 C4.192,25.3098918 4,25.6408918 4,25.9998918 L4,37.9998918 C4,38.3588918 4.192,38.6898918 4.504,38.8678918 L11,42.5798918 L11,51.9998918 C11,52.3548918 11.188,52.6848918 11.496,52.8638918 L23.496,59.8638918 C23.65,59.9538918 23.825,59.9998918 24,59.9998918 C24.106,59.9998918 24.213,59.9828918 24.316,59.9488918 L33.316,56.9488918 C33.725,56.8118918 34,56.4308918 34,55.9998918 L34,43.9998918 L41,43.9998918 L41,48.1418918 C39.28,48.5888918 38,50.1418918 38,51.9998918 C38,54.2058918 39.794,55.9998918 42,55.9998918 C44.206,55.9998918 46,54.2058918 46,51.9998918 C46,50.1418918 44.72,48.5888918 43,48.1418918 L43,42.9998918 C43,42.4478918 42.553,41.9998918 42,41.9998918 L34,41.9998918 L34,36.9998918 L46.5,36.9998918 L48.638,39.8498918 C48.239,40.4718918 48,41.2068918 48,41.9998918 C48,44.2058918 49.794,45.9998918 52,45.9998918 C54.206,45.9998918 56,44.2058918 56,41.9998918 C56,39.7938918 54.206,37.9998918 52,37.9998918 C51.316,37.9998918 50.682,38.1878918 50.119,38.4918918 L47.8,35.3998918 C47.611,35.1478918 47.314,34.9998918 47,34.9998918 L34,34.9998918 L34,29.9998918 L52.142,29.9998918 C52.589,31.7198918 54.141,32.9998918 56,32.9998918 C58.206,32.9998918 60,31.2058918 60,28.9998918 C60,26.7938918 58.206,24.9998918 56,24.9998918 L56,24.9998918 Z" id="Fill-1"></path>
    </g>
</svg>